<?xml version="1.0" encoding="utf-8"?><svg xmlns="http://www.w3.org/2000/svg" xmlns:xlink="http://www.w3.org/1999/xlink"><symbol viewBox="0 0 512 512" id="icon-email" xmlns="http://www.w3.org/2000/svg"><!--! Font Awesome Pro 6.2.0 by @fontawesome - https://fontawesome.com License - https://fontawesome.com/license (Commercial License) Copyright 2022 Fonticons, Inc.--><path d="M48 64C21.5 64 0 85.5 0 112c0 15.1 7.1 29.3 19.2 38.4l217.6 163.2c11.4 8.5 27 8.5 38.4 0l217.6-163.2c12.1-9.1 19.2-23.3 19.2-38.4 0-26.5-21.5-48-48-48H48zM0 176v208c0 35.3 28.7 64 64 64h384c35.3 0 64-28.7 64-64V176L294.4 339.2a63.9 63.9 0 01-76.8 0L0 176z"/></symbol><symbol viewBox="0 0 16 16" id="icon-generator" xmlns="http://www.w3.org/2000/svg"><path d="M7 3l.5-1 1-.5-1-.5L7 0l-.5 1-1 .5 1 .5.5 1zM2.5 5l.833-1.667L5 2.5l-1.667-.833L2.5 0l-.833 1.667L0 2.5l1.667.833L2.5 5zm11 4l-.833 1.667L11 11.5l1.667.834L13.5 14l.833-1.666L16 11.5l-1.667-.833L13.5 9zm2.207-6.055L13.056.293a.996.996 0 00-1.414 0L.293 11.641a1 1 0 000 1.415l2.652 2.651a.997.997 0 001.414 0L15.707 4.36a1 1 0 000-1.414zm-4.474 3.413l-1.59-1.59 2.705-2.707 1.591 1.59-2.706 2.707z"/></symbol><symbol viewBox="0 0 496 512" id="icon-github" xmlns="http://www.w3.org/2000/svg"><!--! Font Awesome Pro 6.2.0 by @fontawesome - https://fontawesome.com License - https://fontawesome.com/license (Commercial License) Copyright 2022 Fonticons, Inc.--><path d="M165.9 397.4c0 2-2.3 3.6-5.2 3.6-3.3.3-5.6-1.3-5.6-3.6 0-2 2.3-3.6 5.2-3.6 3-.3 5.6 1.3 5.6 3.6zm-31.1-4.5c-.7 2 1.3 4.3 4.3 4.9 2.6 1 5.6 0 6.2-2s-1.3-4.3-4.3-5.2c-2.6-.7-5.5.3-6.2 2.3zm44.2-1.7c-2.9.7-4.9 2.6-4.6 4.9.3 2 2.9 3.3 5.9 2.6 2.9-.7 4.9-2.6 4.6-4.6-.3-1.9-3-3.2-5.9-2.9zM244.8 8C106.1 8 0 113.3 0 252c0 110.9 69.8 205.8 169.5 239.2 12.8 2.3 17.3-5.6 17.3-12.1 0-6.2-.3-40.4-.3-61.4 0 0-70 15-84.7-29.8 0 0-11.4-29.1-27.8-36.6 0 0-22.9-15.7 1.6-15.4 0 0 24.9 2 38.6 25.8 21.9 38.6 58.6 27.5 72.9 20.9 2.3-16 8.8-27.1 16-33.7-55.9-6.2-112.3-14.3-112.3-110.5 0-27.5 7.6-41.3 23.6-58.9-2.6-6.5-11.1-33.3 2.6-67.9 20.9-6.5 69 27 69 27 20-5.6 41.5-8.5 62.8-8.5s42.8 2.9 62.8 8.5c0 0 48.1-33.6 69-27 13.7 34.7 5.2 61.4 2.6 67.9 16 17.7 25.8 31.5 25.8 58.9 0 96.5-58.9 104.2-114.8 110.5 9.2 7.9 17 22.9 17 46.4 0 33.7-.3 75.4-.3 83.6 0 6.5 4.6 14.4 17.3 12.1C428.2 457.8 496 362.9 496 252 496 113.3 383.5 8 244.8 8zM97.2 352.9c-1.3 1-1 3.3.7 5.2 1.6 1.6 3.9 2.3 5.2 1 1.3-1 1-3.3-.7-5.2-1.6-1.6-3.9-2.3-5.2-1zm-10.8-8.1c-.7 1.3.3 2.9 2.3 3.9 1.6 1 3.6.7 4.3-.7.7-1.3-.3-2.9-2.3-3.9-2-.6-3.6-.3-4.3.7zm32.4 35.6c-1.6 1.3-1 4.3 1.3 6.2 2.3 2.3 5.2 2.6 6.5 1 1.3-1.3.7-4.3-1.3-6.2-2.2-2.3-5.2-2.6-6.5-1zm-11.4-14.7c-1.6 1-1.6 3.6 0 5.9 1.6 2.3 4.3 3.3 5.6 2.3 1.6-1.3 1.6-3.9 0-6.2-1.4-2.3-4-3.3-5.6-2z"/></symbol><symbol viewBox="0 0 21 16" id="icon-home" xmlns="http://www.w3.org/2000/svg"><path d="M10.015 4.15L3.429 9.576v5.854a.571.571 0 00.572.571l4.003-.01a.571.571 0 00.568-.572V12a.572.572 0 01.572-.572h2.286A.572.572 0 0112 12v3.416a.57.57 0 00.572.573l4 .011a.571.571 0 00.572-.572V9.572l-6.584-5.42a.436.436 0 00-.546 0zm10.402 3.687l-2.986-2.461V.429A.429.429 0 0017.002 0h-2a.429.429 0 00-.428.429v2.593L11.376.392a1.714 1.714 0 00-2.18 0L.157 7.836a.429.429 0 00-.058.604l.911 1.107a.429.429 0 00.604.058l8.402-6.92a.435.435 0 01.546 0l8.402 6.92a.429.429 0 00.604-.057l.91-1.107a.427.427 0 00-.06-.605z"/></symbol><symbol viewBox="0 0 448 512" id="icon-linkedin" xmlns="http://www.w3.org/2000/svg"><!--! Font Awesome Pro 6.2.0 by @fontawesome - https://fontawesome.com License - https://fontawesome.com/license (Commercial License) Copyright 2022 Fonticons, Inc.--><path d="M416 32H31.9C14.3 32 0 46.5 0 64.3v383.4C0 465.5 14.3 480 31.9 480H416c17.6 0 32-14.5 32-32.3V64.3c0-17.8-14.4-32.3-32-32.3zM135.4 416H69V202.2h66.5V416zm-33.2-243c-21.3 0-38.5-17.3-38.5-38.5S80.9 96 102.2 96c21.2 0 38.5 17.3 38.5 38.5 0 21.3-17.2 38.5-38.5 38.5zm282.1 243h-66.4V312c0-24.8-.5-56.7-34.5-56.7-34.6 0-39.9 27-39.9 54.9V416h-66.4V202.2h63.7v29.2h.9c8.9-16.8 30.6-34.5 62.9-34.5 67.2 0 79.7 44.3 79.7 101.9V416z"/></symbol><symbol viewBox="0 0 23 26" id="icon-moon" xmlns="http://www.w3.org/2000/svg"><path d="M13.059 25.25a12.6 12.6 0 009.807-4.675c.348-.43-.032-1.056-.57-.954-6.126 1.167-11.75-3.53-11.75-9.713a9.885 9.885 0 015.005-8.6.592.592 0 00-.185-1.097A12.84 12.84 0 0013.059 0C6.089 0 .434 5.647.434 12.625c0 6.969 5.647 12.625 12.625 12.625z"/></symbol><symbol viewBox="0 0 32 32" id="icon-sun" xmlns="http://www.w3.org/2000/svg"><path d="M15.714 9.821a5.902 5.902 0 00-5.893 5.893 5.902 5.902 0 005.893 5.892 5.902 5.902 0 005.892-5.892 5.902 5.902 0 00-5.892-5.893zm15.124 4.941l-5.813-2.903 2.057-6.163c.276-.835-.516-1.626-1.345-1.344l-6.162 2.056L16.665.59a1.063 1.063 0 00-1.903 0L11.86 6.402 5.69 4.346c-.835-.276-1.627.515-1.344 1.344l2.056 6.163-5.813 2.91a1.063 1.063 0 000 1.902l5.813 2.904-2.056 6.168c-.276.835.515 1.627 1.344 1.345l6.163-2.057 2.903 5.813c.393.786 1.51.786 1.903 0l2.903-5.813 6.163 2.057c.835.276 1.627-.516 1.344-1.345l-2.056-6.162 5.813-2.904c.798-.399.798-1.516.012-1.909zm-9.57 6.507c-3.062 3.063-8.046 3.063-11.11 0-3.062-3.063-3.062-8.047 0-11.11 3.064-3.063 8.048-3.063 11.11 0 3.064 3.063 3.064 8.047 0 11.11z"/></symbol><symbol display="block" preserveAspectRatio="xMidYMid" style="margin:auto;background-color:#fff" viewBox="0 0 100 100" id="loader" xmlns="http://www.w3.org/2000/svg"><path d="M10 50a40 40 0 0080 0 40 42 0 01-80 0"><animateTransform attributeName="transform" dur="1s" keyTimes="0;1" repeatCount="indefinite" type="rotate" values="0 50 51;360 50 51"/></path></symbol><symbol fill="none" viewBox="0 0 46 44" id="logo-default" xmlns="http://www.w3.org/2000/svg"><path d="M41.071 0H4.93C2.207 0 0 2.11 0 4.714v34.572C0 41.889 2.207 44 4.929 44H41.07C43.793 44 46 41.89 46 39.286V4.714C46 2.111 43.793 0 41.071 0zm0 39.286H4.93V4.714H41.07v34.572z" fill="#364A61"/><path fill="#D9D9D9" d="M13 0h6v44h-6zM28 0h6v44h-6z"/><path fill="#96A1B0" d="M0 13h46v6H0zM0 26h46v5H0z"/></symbol></svg>