<?xml version="1.0" encoding="utf-8"?><svg xmlns="http://www.w3.org/2000/svg" xmlns:xlink="http://www.w3.org/1999/xlink"><symbol viewBox="0 0 16 16" id="icon-generator" xmlns="http://www.w3.org/2000/svg"><path d="M7 3l.5-1 1-.5-1-.5L7 0l-.5 1-1 .5 1 .5.5 1zM2.5 5l.833-1.667L5 2.5l-1.667-.833L2.5 0l-.833 1.667L0 2.5l1.667.833L2.5 5zm11 4l-.833 1.667L11 11.5l1.667.834L13.5 14l.833-1.666L16 11.5l-1.667-.833L13.5 9zm2.207-6.055L13.056.293a.996.996 0 00-1.414 0L.293 11.641a1 1 0 000 1.415l2.652 2.651a.997.997 0 001.414 0L15.707 4.36a1 1 0 000-1.414zm-4.474 3.413l-1.59-1.59 2.705-2.707 1.591 1.59-2.706 2.707z"/></symbol><symbol viewBox="0 0 21 16" id="icon-home" xmlns="http://www.w3.org/2000/svg"><path d="M10.015 4.15L3.429 9.576v5.854a.571.571 0 00.572.571l4.003-.01a.571.571 0 00.568-.572V12a.572.572 0 01.572-.572h2.286A.572.572 0 0112 12v3.416a.57.57 0 00.572.573l4 .011a.571.571 0 00.572-.572V9.572l-6.584-5.42a.436.436 0 00-.546 0zm10.402 3.687l-2.986-2.461V.429A.429.429 0 0017.002 0h-2a.429.429 0 00-.428.429v2.593L11.376.392a1.714 1.714 0 00-2.18 0L.157 7.836a.429.429 0 00-.058.604l.911 1.107a.429.429 0 00.604.058l8.402-6.92a.435.435 0 01.546 0l8.402 6.92a.429.429 0 00.604-.057l.91-1.107a.427.427 0 00-.06-.605z"/></symbol><symbol fill="none" viewBox="0 0 46 44" id="logo-default" xmlns="http://www.w3.org/2000/svg"><path d="M41.071 0H4.93C2.207 0 0 2.11 0 4.714v34.572C0 41.889 2.207 44 4.929 44H41.07C43.793 44 46 41.89 46 39.286V4.714C46 2.111 43.793 0 41.071 0zm0 39.286H4.93V4.714H41.07v34.572z" fill="#364A61"/><path fill="#D9D9D9" d="M13 0h6v44h-6zM28 0h6v44h-6z"/><path fill="#96A1B0" d="M0 13h46v6H0zM0 26h46v5H0z"/></symbol></svg>