<svg width="32" height="32" viewBox="0 0 32 32" fill="none" xmlns="http://www.w3.org/2000/svg">
<path d="M15.7137 9.82107C12.4666 9.82107 9.82107 12.4666 9.82107 15.7137C9.82107 18.9608 12.4666 21.6064 15.7137 21.6064C18.9608 21.6064 21.6064 18.9608 21.6064 15.7137C21.6064 12.4666 18.9608 9.82107 15.7137 9.82107ZM30.8382 14.7623L25.0253 11.8589L27.0816 5.69622C27.3578 4.86143 26.566 4.06961 25.7373 4.35196L19.5746 6.40825L16.6651 0.589264C16.2723 -0.196421 15.1551 -0.196421 14.7623 0.589264L11.8589 6.40211L5.69008 4.34582C4.85529 4.06961 4.06347 4.86143 4.34582 5.69008L6.40211 11.8528L0.589264 14.7623C-0.196421 15.1551 -0.196421 16.2723 0.589264 16.6651L6.40211 19.5685L4.34582 25.7373C4.06961 26.5721 4.86143 27.364 5.69008 27.0816L11.8528 25.0253L14.7562 30.8382C15.149 31.6239 16.2661 31.6239 16.659 30.8382L19.5623 25.0253L25.7251 27.0816C26.5599 27.3578 27.3517 26.566 27.0693 25.7373L25.013 19.5746L30.8259 16.6713C31.6239 16.2723 31.6239 15.1551 30.8382 14.7623V14.7623ZM21.2688 21.2688C18.2058 24.3317 13.2216 24.3317 10.1587 21.2688C7.09572 18.2058 7.09572 13.2216 10.1587 10.1587C13.2216 7.09572 18.2058 7.09572 21.2688 10.1587C24.3317 13.2216 24.3317 18.2058 21.2688 21.2688Z" fill="#FFD43B"/>
</svg>
