<svg width="21" height="16" viewBox="0 0 21 16" fill="none" xmlns="http://www.w3.org/2000/svg">
<path d="M10.0149 4.15082L3.42949 9.57464V15.4285C3.42949 15.5801 3.4897 15.7254 3.59688 15.8326C3.70405 15.9398 3.84941 16 4.00098 16L8.00357 15.9896C8.15464 15.9889 8.29927 15.9283 8.40583 15.8212C8.51239 15.7142 8.57221 15.5692 8.57221 15.4181V11.9996C8.57221 11.848 8.63242 11.7026 8.73959 11.5954C8.84677 11.4883 8.99213 11.4281 9.1437 11.4281H11.4297C11.5812 11.4281 11.7266 11.4883 11.8338 11.5954C11.9409 11.7026 12.0012 11.848 12.0012 11.9996V15.4156C12.0009 15.4908 12.0155 15.5654 12.0441 15.6349C12.0728 15.7044 12.1148 15.7677 12.1679 15.8209C12.221 15.8742 12.2841 15.9164 12.3535 15.9453C12.423 15.9741 12.4975 15.9889 12.5727 15.9889L16.5738 16C16.7254 16 16.8707 15.9398 16.9779 15.8326C17.0851 15.7254 17.1453 15.5801 17.1453 15.4285V9.57071L10.5614 4.15082C10.484 4.08843 10.3875 4.05441 10.2881 4.05441C10.1887 4.05441 10.0923 4.08843 10.0149 4.15082ZM20.4171 7.8373L17.4311 5.37596V0.428619C17.4311 0.314942 17.3859 0.205921 17.3055 0.12554C17.2251 0.0451581 17.1161 0 17.0024 0H15.0022C14.8885 0 14.7795 0.0451581 14.6991 0.12554C14.6187 0.205921 14.5736 0.314942 14.5736 0.428619V3.02212L11.3757 0.391115C11.0688 0.138579 10.6838 0.000504822 10.2863 0.000504822C9.88889 0.000504822 9.50381 0.138579 9.19692 0.391115L0.155553 7.8373C0.11215 7.87318 0.076242 7.91725 0.0498791 7.967C0.0235162 8.01676 0.00721536 8.07122 0.00190813 8.12728C-0.00339911 8.18334 0.00239122 8.23989 0.0189483 8.29371C0.0355053 8.34753 0.0625046 8.39756 0.0984034 8.44094L1.00922 9.54821C1.04502 9.59174 1.08906 9.62778 1.1388 9.65428C1.18855 9.68077 1.24304 9.69719 1.29914 9.7026C1.35524 9.708 1.41186 9.70229 1.46576 9.68579C1.51965 9.66929 1.56976 9.64232 1.61322 9.60643L10.0149 2.68637C10.0923 2.62398 10.1887 2.58996 10.2881 2.58996C10.3875 2.58996 10.484 2.62398 10.5614 2.68637L18.9634 9.60643C19.0068 9.64233 19.0568 9.66933 19.1106 9.68588C19.1644 9.70244 19.221 9.70823 19.277 9.70292C19.3331 9.69762 19.3875 9.68132 19.4373 9.65495C19.4871 9.62859 19.5311 9.59268 19.567 9.54928L20.4778 8.44201C20.5137 8.39838 20.5406 8.34809 20.5569 8.29404C20.5733 8.23998 20.5788 8.18323 20.5732 8.12704C20.5675 8.07084 20.5508 8.01632 20.524 7.96659C20.4973 7.91687 20.4609 7.87293 20.4171 7.8373Z" fill="#364A61"/>
</svg>
