<svg width="16" height="16" viewBox="0 0 16 16" fill="none" xmlns="http://www.w3.org/2000/svg">
<path d="M7.00014 3.00006L7.50015 2.00004L8.50017 1.50003L7.50015 1.00002L7.00014 0L6.50013 1.00002L5.50011 1.50003L6.50013 2.00004L7.00014 3.00006ZM2.50005 5.0001L3.33319 3.3335L5.0001 2.50005L3.33319 1.6666L2.50005 0L1.66691 1.6666L0 2.50005L1.66691 3.3335L2.50005 5.0001ZM13.5003 9.00018L12.6671 10.6668L11.0002 11.5002L12.6671 12.3337L13.5003 14.0003L14.3334 12.3337L16.0003 11.5002L14.3334 10.6668L13.5003 9.00018ZM15.7072 2.94475L13.0556 0.293131C12.8606 0.0975019 12.6046 0 12.3487 0C12.0927 0 11.8368 0.0975019 11.6415 0.293131L0.293131 11.6415C-0.0975019 12.0321 -0.0975019 12.6652 0.293131 13.0556L2.94475 15.7072C3.14006 15.9025 3.396 16 3.65163 16C3.90758 16 4.16352 15.9025 4.35884 15.7072L15.7072 4.35852C16.0978 3.96852 16.0978 3.33507 15.7072 2.94475ZM11.233 6.35825L9.64206 4.76728L12.3484 2.06098L13.9393 3.65195L11.233 6.35825Z" fill="#364A61"/>
</svg>
